<svg width="447" height="124" viewBox="0 0 447 124" fill="none" xmlns="http://www.w3.org/2000/svg">
<path d="M11.288 42.592H1.88V0.495999H17.72C26.024 0.495999 32.12 4.624 32.12 13.696V17.104C32.12 26.176 26.024 30.304 17.72 30.304H11.288V42.592ZM11.288 8.656V22.144H17.24C20.456 22.144 22.76 20.224 22.76 16.576V14.224C22.76 10.576 20.456 8.656 17.24 8.656H11.288ZM45.9253 42.592H36.6613V11.056H45.4933V13.456C47.1253 11.2 50.0053 10.288 52.3573 10.288C54.2773 10.288 55.7653 10.72 57.0133 11.68L56.5333 19.792C55.1893 19.12 53.5093 18.832 51.7333 18.832C48.1333 18.832 46.0693 20.512 45.9253 23.392V42.592ZM69.596 8.32H60.38V0.207997H69.596V8.32ZM69.596 42.592H60.38V11.056H69.596V42.592ZM88.1971 43.36C82.2931 43.36 74.3731 40.336 74.3731 29.344V24.304C74.3731 13.312 82.2931 10.288 88.1971 10.288C92.6131 10.288 95.6371 11.2 97.7491 12.496L96.7891 19.504C95.2531 18.592 92.9011 18.064 89.5891 18.064C86.0851 18.064 83.5411 19.984 83.5411 24.208V29.44C83.5411 33.664 86.0851 35.584 89.5891 35.584C92.6611 35.584 95.5891 34.864 97.3651 33.76L98.3251 41.008C95.9731 42.448 92.6131 43.36 88.1971 43.36ZM128.389 29.296H110.725V30.88C110.725 34.144 113.413 36.064 117.397 36.064C120.949 36.064 123.637 35.2 125.653 33.904L126.613 40.72C124.501 42.304 120.565 43.36 115.525 43.36C109.525 43.36 101.701 40.096 101.701 29.584V23.584C101.701 13.36 109.237 10.288 115.381 10.288C122.053 10.288 128.629 12.88 128.629 25.6C128.629 27.376 128.533 28.48 128.389 29.296ZM115.429 17.584C113.077 17.584 110.725 19.12 110.725 22.528V23.488H119.797V22.528C119.797 19.12 117.781 17.584 115.429 17.584ZM156.272 42.592H146.864V0.495999H173.744V8.704H156.272V18.064H172.496V26.272H156.272V42.592ZM190.574 43.36C184.19 43.36 176.654 40.384 176.654 30.064V23.584C176.654 13.264 184.046 10.288 190.574 10.288C196.958 10.288 204.494 13.264 204.494 23.584V30.064C204.494 40.384 196.958 43.36 190.574 43.36ZM190.574 35.488C192.638 35.488 195.326 34.384 195.326 30.976V22.672C195.326 19.264 192.638 18.16 190.574 18.16C188.51 18.16 185.822 19.264 185.822 22.672V30.976C185.822 34.384 188.51 35.488 190.574 35.488ZM218.566 42.592H209.302V11.056H218.134V13.456C219.766 11.2 222.646 10.288 224.998 10.288C226.918 10.288 228.406 10.72 229.654 11.68L229.174 19.792C227.83 19.12 226.15 18.832 224.374 18.832C220.774 18.832 218.71 20.512 218.566 23.392V42.592ZM258.749 29.296H241.085V30.88C241.085 34.144 243.773 36.064 247.757 36.064C251.309 36.064 253.997 35.2 256.013 33.904L256.973 40.72C254.861 42.304 250.925 43.36 245.885 43.36C239.885 43.36 232.061 40.096 232.061 29.584V23.584C232.061 13.36 239.597 10.288 245.741 10.288C252.413 10.288 258.989 12.88 258.989 25.6C258.989 27.376 258.893 28.48 258.749 29.296ZM245.789 17.584C243.437 17.584 241.085 19.12 241.085 22.528V23.488H250.157V22.528C250.157 19.12 248.141 17.584 245.789 17.584ZM276.635 43.36C270.731 43.36 262.811 40.336 262.811 29.344V24.304C262.811 13.312 270.731 10.288 276.635 10.288C281.051 10.288 284.075 11.2 286.187 12.496L285.227 19.504C283.691 18.592 281.339 18.064 278.027 18.064C274.523 18.064 271.979 19.984 271.979 24.208V29.44C271.979 33.664 274.523 35.584 278.027 35.584C281.099 35.584 284.027 34.864 285.803 33.76L286.763 41.008C284.411 42.448 281.051 43.36 276.635 43.36ZM303.195 10.288C310.155 10.288 316.299 12.736 316.299 23.104V42.592H309.195L308.811 40.576C306.987 42.304 303.915 43.408 299.979 43.408C295.995 43.408 290.139 41.008 290.139 33.232C290.139 25.744 295.659 23.488 302.859 23.488H307.323V21.664C307.323 18.544 304.971 17.776 301.947 17.776C298.971 17.776 295.323 19.168 292.875 20.752L291.915 13.744C295.083 11.536 299.163 10.288 303.195 10.288ZM303.051 36.496C304.923 36.496 307.323 35.44 307.323 32.944V30.064H303.435C300.651 30.064 299.163 31.072 299.163 33.328C299.163 35.392 300.651 36.496 303.051 36.496ZM332.944 43.36C328.72 43.36 324.256 42.304 320.992 40.096L321.952 32.752C325.792 35.008 328.96 35.92 332.272 35.92C334.384 35.92 335.728 35.104 335.728 33.664C335.728 32.032 333.184 31.168 329.584 29.92L327.616 29.248C322.864 27.616 320.32 24.016 320.368 19.888C320.416 13.696 325.168 10.288 332.56 10.288C336.88 10.288 340.288 11.296 343.12 13.168L341.872 20.08C339.664 18.688 336.448 17.728 333.424 17.728C331.12 17.728 329.872 18.448 329.872 19.744C329.872 21.376 331.696 21.76 335.152 22.864L336.928 23.44C342.016 25.072 344.992 28.336 344.944 33.232C344.896 40.048 339.664 43.36 332.944 43.36ZM361.762 43.408C355.906 43.408 352.114 40.816 352.114 33.568V19.648H346.882V12.016H352.114V1.936H361.234V12.016H368.53V19.648H361.234V33.136C361.234 34.768 362.194 35.632 363.73 35.68C365.17 35.728 367.042 35.536 368.05 35.152L368.53 42.112C366.85 42.88 364.498 43.408 361.762 43.408ZM381.596 8.32H372.38V0.207997H381.596V8.32ZM381.596 42.592H372.38V11.056H381.596V42.592ZM396.405 42.592H387.333V11.056H395.973V13.408C397.893 11.248 400.869 10.288 403.797 10.288C409.605 10.288 414.597 13.408 414.597 23.536V42.592H405.381V23.008C405.381 19.744 403.605 18.064 400.917 18.064C398.229 18.064 396.405 19.696 396.405 22.768V42.592ZM446.6 11.056V15.424H446.648V40.864C446.648 46.624 443.24 53.2 432.248 53.2C428.792 53.2 425.672 52.432 423.368 51.136L424.328 44.464C426.44 45.328 428.552 45.856 431.288 45.856C435.608 45.856 438.008 44.416 438.008 40.144V39.904C435.992 41.92 432.92 42.64 430.616 42.64C424.28 42.64 418.904 39.52 418.904 29.392V23.536C418.904 13.408 424.28 10.288 430.616 10.288C433.016 10.288 436.136 11.296 438.008 13.408V11.056H446.6ZM437.576 30.544V22.576C437.576 19.312 434.984 18.016 432.92 18.016C430.856 18.016 428.312 19.312 428.312 22.576V30.304C428.312 33.568 430.856 34.912 432.92 34.912C434.936 34.912 437.576 33.616 437.576 30.544ZM14.072 123.36C8.744 123.36 3.944 121.68 0.0560001 119.136L1.496 110.928C4.328 112.944 9.176 115.056 13.592 115.056C16.616 115.056 19.016 113.76 19.064 110.928C19.112 108.288 17 106.8 12.632 105.168L10.472 104.352C3.56 101.76 0.2 97.92 0.2 91.584C0.2 84.24 5.72 79.728 14.216 79.728C18.488 79.728 22.712 80.928 26.024 82.848L24.824 90.624C21.32 88.752 17.96 88.032 14.888 88.032C12.056 88.032 9.704 89.136 9.656 91.824C9.608 94.608 12.008 95.616 15.896 97.104L18.056 97.92C24.44 100.32 28.568 103.824 28.568 110.928C28.568 118.704 22.424 123.36 14.072 123.36ZM58.358 109.296H40.694V110.88C40.694 114.144 43.382 116.064 47.366 116.064C50.918 116.064 53.606 115.2 55.622 113.904L56.582 120.72C54.47 122.304 50.534 123.36 45.494 123.36C39.494 123.36 31.67 120.096 31.67 109.584V103.584C31.67 93.36 39.206 90.288 45.35 90.288C52.022 90.288 58.598 92.88 58.598 105.6C58.598 107.376 58.502 108.48 58.358 109.296ZM45.398 97.584C43.046 97.584 40.694 99.12 40.694 102.528V103.488H49.766V102.528C49.766 99.12 47.75 97.584 45.398 97.584ZM72.644 122.592H63.38V91.056H72.212V93.456C73.844 91.2 76.724 90.288 79.076 90.288C80.996 90.288 82.484 90.72 83.732 91.68L83.252 99.792C81.908 99.12 80.228 98.832 78.452 98.832C74.852 98.832 72.788 100.512 72.644 103.392V122.592ZM99.1468 112.848L104.523 91.056H113.307L103.995 122.592H94.0108L84.4588 91.056H93.6268L99.1468 112.848ZM125.659 88.32H116.443V80.208H125.659V88.32ZM125.659 122.592H116.443V91.056H125.659V122.592ZM144.26 123.36C138.356 123.36 130.436 120.336 130.436 109.344V104.304C130.436 93.312 138.356 90.288 144.26 90.288C148.676 90.288 151.7 91.2 153.812 92.496L152.852 99.504C151.316 98.592 148.964 98.064 145.652 98.064C142.148 98.064 139.604 99.984 139.604 104.208V109.44C139.604 113.664 142.148 115.584 145.652 115.584C148.724 115.584 151.652 114.864 153.428 113.76L154.388 121.008C152.036 122.448 148.676 123.36 144.26 123.36ZM184.452 109.296H166.788V110.88C166.788 114.144 169.476 116.064 173.46 116.064C177.012 116.064 179.7 115.2 181.716 113.904L182.676 120.72C180.564 122.304 176.628 123.36 171.588 123.36C165.588 123.36 157.764 120.096 157.764 109.584V103.584C157.764 93.36 165.3 90.288 171.444 90.288C178.116 90.288 184.692 92.88 184.692 105.6C184.692 107.376 184.596 108.48 184.452 109.296ZM171.492 97.584C169.14 97.584 166.788 99.12 166.788 102.528V103.488H175.86V102.528C175.86 99.12 173.844 97.584 171.492 97.584ZM212.335 122.592H202.927V80.496H218.767C227.071 80.496 233.167 84.624 233.167 93.696V97.104C233.167 106.176 227.071 110.304 218.767 110.304H212.335V122.592ZM212.335 88.656V102.144H218.287C221.503 102.144 223.807 100.224 223.807 96.576V94.224C223.807 90.576 221.503 88.656 218.287 88.656H212.335ZM247.116 122.592H237.708V80.496H247.116V122.592ZM264.992 90.288C271.952 90.288 278.096 92.736 278.096 103.104V122.592H270.992L270.608 120.576C268.784 122.304 265.712 123.408 261.776 123.408C257.792 123.408 251.936 121.008 251.936 113.232C251.936 105.744 257.456 103.488 264.656 103.488H269.12V101.664C269.12 98.544 266.768 97.776 263.744 97.776C260.768 97.776 257.12 99.168 254.672 100.752L253.712 93.744C256.88 91.536 260.96 90.288 264.992 90.288ZM264.848 116.496C266.72 116.496 269.12 115.44 269.12 112.944V110.064H265.232C262.448 110.064 260.96 111.072 260.96 113.328C260.96 115.392 262.448 116.496 264.848 116.496ZM295.387 123.408C289.531 123.408 285.739 120.816 285.739 113.568V99.648H280.507V92.016H285.739V81.936H294.859V92.016H302.155V99.648H294.859V113.136C294.859 114.768 295.819 115.632 297.355 115.68C298.795 115.728 300.667 115.536 301.675 115.152L302.155 122.112C300.475 122.88 298.123 123.408 295.387 123.408ZM317.957 122.592H308.933V99.648H303.605V92.016H308.933V89.568C308.933 82.8 312.629 79.728 318.485 79.728C321.221 79.728 323.573 80.352 325.253 81.264L324.293 87.888C323.285 87.696 321.893 87.408 320.453 87.456C318.917 87.504 317.957 88.368 317.957 90V92.016H325.253V99.648H317.957V122.592ZM341.559 123.36C335.175 123.36 327.639 120.384 327.639 110.064V103.584C327.639 93.264 335.031 90.288 341.559 90.288C347.943 90.288 355.479 93.264 355.479 103.584V110.064C355.479 120.384 347.943 123.36 341.559 123.36ZM341.559 115.488C343.623 115.488 346.311 114.384 346.311 110.976V102.672C346.311 99.264 343.623 98.16 341.559 98.16C339.495 98.16 336.807 99.264 336.807 102.672V110.976C336.807 114.384 339.495 115.488 341.559 115.488ZM369.55 122.592H360.286V91.056H369.118V93.456C370.75 91.2 373.63 90.288 375.982 90.288C377.902 90.288 379.39 90.72 380.638 91.68L380.158 99.792C378.814 99.12 377.134 98.832 375.358 98.832C371.758 98.832 369.694 100.512 369.55 103.392V122.592ZM416.453 90.288C422.741 90.288 427.829 93.648 427.829 103.536V122.592H418.613V103.008C418.613 99.744 417.173 98.064 414.485 98.064C411.989 98.064 410.501 99.504 410.309 102.192C410.357 102.624 410.357 103.056 410.357 103.536V122.592H401.333V103.008C401.333 99.744 399.893 98.064 397.253 98.064C394.565 98.064 393.077 99.696 393.077 102.768V122.592H384.005V91.056H392.645V93.6C394.181 91.728 396.629 90.288 399.893 90.288C403.157 90.288 406.037 91.344 407.909 93.888C409.925 91.488 412.901 90.288 416.453 90.288Z" fill="#FF0558"/>
</svg>
