<svg width="421" height="23" viewBox="0 0 421 23" fill="none" xmlns="http://www.w3.org/2000/svg">
<path d="M0.773438 3.9375V1.03125H14.6719V3.9375H9.46875V18H5.97656V3.9375H0.773438ZM20.25 10.6406V18H16.7812V1.03125H20.1562V7.5H20.2969C20.8828 6.02344 22.1719 5.10938 24.0938 5.10938C26.7422 5.10938 28.5 6.89062 28.5 9.89062V18H25.0312V10.5C25.0312 8.92969 24.1875 7.99219 22.7344 7.99219C21.2812 7.99219 20.25 8.95312 20.25 10.6406ZM36.9375 18.2578C33.0469 18.2578 30.6562 15.7266 30.6562 11.6953C30.6562 7.75781 33.0703 5.10938 36.7969 5.10938C40.1484 5.10938 42.7734 7.21875 42.7734 11.5547V12.5391H34.0781C34.0781 14.4609 35.2266 15.6562 37.0078 15.6562C38.1797 15.6562 39.0234 15.1406 39.375 14.3672H42.6797C42.1875 16.7109 40.0781 18.2578 36.9375 18.2578ZM34.0781 10.3594H39.4922C39.4922 8.8125 38.4141 7.71094 36.8672 7.71094C35.2734 7.71094 34.1367 8.89453 34.0781 10.3594ZM50.4844 18V5.27344H53.9531V18H50.4844ZM52.2188 3.60938C51.1641 3.60938 50.3203 2.8125 50.3203 1.85156C50.3203 0.867188 51.1641 0.0703125 52.2188 0.0703125C53.25 0.0703125 54.0938 0.867188 54.0938 1.85156C54.0938 2.8125 53.25 3.60938 52.2188 3.60938ZM60.1172 10.6406V18H56.6484V5.27344H59.9531V7.5H60.0938C60.6797 6.02344 62.0391 5.10938 63.9141 5.10938C66.5625 5.10938 68.3203 6.91406 68.2969 9.89062V18H64.8516V10.5C64.8516 8.92969 63.9844 7.99219 62.5547 7.99219C61.1016 7.99219 60.1172 8.95312 60.1172 10.6406ZM82.3359 5.27344L77.8594 18H73.9688L69.5156 5.27344H73.1719L75.8438 14.4141H75.9844L78.6562 5.27344H82.3359ZM89.3672 18.2578C85.4766 18.2578 83.0859 15.7266 83.0859 11.6953C83.0859 7.75781 85.5 5.10938 89.2266 5.10938C92.5781 5.10938 95.2031 7.21875 95.2031 11.5547V12.5391H86.5078C86.5078 14.4609 87.6562 15.6562 89.4375 15.6562C90.6094 15.6562 91.4531 15.1406 91.8047 14.3672H95.1094C94.6172 16.7109 92.5078 18.2578 89.3672 18.2578ZM86.5078 10.3594H91.9219C91.9219 8.8125 90.8438 7.71094 89.2969 7.71094C87.7031 7.71094 86.5664 8.89453 86.5078 10.3594ZM104.648 9.04688C104.508 8.15625 103.711 7.57031 102.562 7.57031C101.438 7.57031 100.57 8.10938 100.594 8.88281C100.57 9.44531 101.039 9.89062 102.234 10.1484L104.508 10.6172C106.969 11.1328 108.164 12.2344 108.188 14.0625C108.164 16.5703 105.914 18.2578 102.539 18.2578C99.0938 18.2578 97.0781 16.7109 96.7969 14.2266H100.289C100.453 15.2344 101.273 15.75 102.539 15.75C103.805 15.75 104.648 15.2344 104.648 14.4141C104.648 13.7578 104.109 13.3594 102.914 13.1016L100.805 12.6797C98.3906 12.2109 97.125 10.9453 97.1484 9.07031C97.125 6.63281 99.2344 5.10938 102.516 5.10938C105.727 5.10938 107.719 6.63281 107.906 9.04688H104.648ZM117.023 5.27344V7.875H114.633V14.0859C114.633 15.0938 115.125 15.3516 115.828 15.375C116.18 15.375 116.789 15.3516 117.211 15.3047V18.0469C116.836 18.1172 116.227 18.1641 115.359 18.1641C112.852 18.1641 111.141 17.0391 111.164 14.5781V7.875H109.406V5.27344H111.164V2.22656H114.633V5.27344H117.023ZM119.203 18V5.27344H122.508V7.5H122.648C123.188 6.02344 124.477 5.10938 126.188 5.10938C127.945 5.10938 129.234 6.02344 129.656 7.5H129.773C130.312 6.04688 131.742 5.10938 133.617 5.10938C135.984 5.10938 137.625 6.67969 137.625 9.44531V18H134.156V10.125C134.156 8.67188 133.312 7.96875 132.164 7.96875C130.852 7.96875 130.102 8.88281 130.102 10.2188V18H126.727V10.0312C126.727 8.76562 125.93 7.96875 124.758 7.96875C123.586 7.96875 122.672 8.90625 122.672 10.3594V18H119.203ZM146.062 18.2578C142.172 18.2578 139.781 15.7266 139.781 11.6953C139.781 7.75781 142.195 5.10938 145.922 5.10938C149.273 5.10938 151.898 7.21875 151.898 11.5547V12.5391H143.203C143.203 14.4609 144.352 15.6562 146.133 15.6562C147.305 15.6562 148.148 15.1406 148.5 14.3672H151.805C151.312 16.7109 149.203 18.2578 146.062 18.2578ZM143.203 10.3594H148.617C148.617 8.8125 147.539 7.71094 145.992 7.71094C144.398 7.71094 143.262 8.89453 143.203 10.3594ZM157.547 10.6406V18H154.078V5.27344H157.383V7.5H157.523C158.109 6.02344 159.469 5.10938 161.344 5.10938C163.992 5.10938 165.75 6.91406 165.727 9.89062V18H162.281V10.5C162.281 8.92969 161.414 7.99219 159.984 7.99219C158.531 7.99219 157.547 8.95312 157.547 10.6406ZM175.125 5.27344V7.875H172.734V14.0859C172.734 15.0938 173.227 15.3516 173.93 15.375C174.281 15.375 174.891 15.3516 175.312 15.3047V18.0469C174.938 18.1172 174.328 18.1641 173.461 18.1641C170.953 18.1641 169.242 17.0391 169.266 14.5781V7.875H167.508V5.27344H169.266V2.22656H172.734V5.27344H175.125ZM182.836 18V5.27344H186.305V18H182.836ZM184.57 3.60938C183.516 3.60938 182.672 2.8125 182.672 1.85156C182.672 0.867188 183.516 0.0703125 184.57 0.0703125C185.602 0.0703125 186.445 0.867188 186.445 1.85156C186.445 2.8125 185.602 3.60938 184.57 3.60938ZM196.266 9.04688C196.125 8.15625 195.328 7.57031 194.18 7.57031C193.055 7.57031 192.188 8.10938 192.211 8.88281C192.188 9.44531 192.656 9.89062 193.852 10.1484L196.125 10.6172C198.586 11.1328 199.781 12.2344 199.805 14.0625C199.781 16.5703 197.531 18.2578 194.156 18.2578C190.711 18.2578 188.695 16.7109 188.414 14.2266H191.906C192.07 15.2344 192.891 15.75 194.156 15.75C195.422 15.75 196.266 15.2344 196.266 14.4141C196.266 13.7578 195.727 13.3594 194.531 13.1016L192.422 12.6797C190.008 12.2109 188.742 10.9453 188.766 9.07031C188.742 6.63281 190.852 5.10938 194.133 5.10938C197.344 5.10938 199.336 6.63281 199.523 9.04688H196.266ZM215.625 12.5859V5.27344H219.094V18H215.766V15.7031H215.625C215.039 17.1797 213.68 18.1641 211.758 18.1641C209.203 18.1641 207.469 16.3594 207.469 13.3828V5.27344H210.938V12.7734C210.938 14.2734 211.805 15.2344 213.164 15.2344C214.43 15.2344 215.625 14.3203 215.625 12.5859ZM221.789 22.7812V5.27344H225.211V7.40625H225.352C225.82 6.375 226.852 5.10938 228.984 5.10938C231.797 5.10938 234.141 7.28906 234.141 11.6484C234.141 15.8906 231.891 18.2109 228.984 18.2109C226.898 18.2109 225.844 17.0156 225.352 15.9609H225.258V22.7812H221.789ZM225.188 11.625C225.188 13.9219 226.172 15.4453 227.883 15.4453C229.664 15.4453 230.602 13.875 230.602 11.625C230.602 9.39844 229.664 7.875 227.883 7.875C226.148 7.875 225.188 9.32812 225.188 11.625ZM248.625 5.27344V7.875H246.234V14.0859C246.234 15.0938 246.727 15.3516 247.43 15.375C247.781 15.375 248.391 15.3516 248.812 15.3047V18.0469C248.438 18.1172 247.828 18.1641 246.961 18.1641C244.453 18.1641 242.742 17.0391 242.766 14.5781V7.875H241.008V5.27344H242.766V2.22656H246.234V5.27344H248.625ZM256.383 18.2578C252.539 18.2578 250.148 15.6094 250.148 11.6719C250.148 7.73438 252.539 5.10938 256.383 5.10938C260.227 5.10938 262.641 7.73438 262.641 11.6719C262.641 15.6094 260.227 18.2578 256.383 18.2578ZM256.406 15.5625C258.188 15.5625 259.102 13.8984 259.102 11.6719C259.102 9.42188 258.188 7.75781 256.406 7.75781C254.602 7.75781 253.664 9.42188 253.664 11.6719C253.664 13.8984 254.602 15.5625 256.406 15.5625ZM277.055 5.27344V7.875H274.664V14.0859C274.664 15.0938 275.156 15.3516 275.859 15.375C276.211 15.375 276.82 15.3516 277.242 15.3047V18.0469C276.867 18.1172 276.258 18.1641 275.391 18.1641C272.883 18.1641 271.172 17.0391 271.195 14.5781V7.875H269.438V5.27344H271.195V2.22656H274.664V5.27344H277.055ZM282.984 10.6406V18H279.516V1.03125H282.891V7.5H283.031C283.617 6.02344 284.906 5.10938 286.828 5.10938C289.477 5.10938 291.234 6.89062 291.234 9.89062V18H287.766V10.5C287.766 8.92969 286.922 7.99219 285.469 7.99219C284.016 7.99219 282.984 8.95312 282.984 10.6406ZM299.672 18.2578C295.781 18.2578 293.391 15.7266 293.391 11.6953C293.391 7.75781 295.805 5.10938 299.531 5.10938C302.883 5.10938 305.508 7.21875 305.508 11.5547V12.5391H296.812C296.812 14.4609 297.961 15.6562 299.742 15.6562C300.914 15.6562 301.758 15.1406 302.109 14.3672H305.414C304.922 16.7109 302.812 18.2578 299.672 18.2578ZM296.812 10.3594H302.227C302.227 8.8125 301.148 7.71094 299.602 7.71094C298.008 7.71094 296.871 8.89453 296.812 10.3594ZM313.219 18V5.27344H316.688V18H313.219ZM314.953 3.60938C313.898 3.60938 313.055 2.8125 313.055 1.85156C313.055 0.867188 313.898 0.0703125 314.953 0.0703125C315.984 0.0703125 316.828 0.867188 316.828 1.85156C316.828 2.8125 315.984 3.60938 314.953 3.60938ZM322.852 10.6406V18H319.383V5.27344H322.688V7.5H322.828C323.414 6.02344 324.773 5.10938 326.648 5.10938C329.297 5.10938 331.055 6.91406 331.031 9.89062V18H327.586V10.5C327.586 8.92969 326.719 7.99219 325.289 7.99219C323.836 7.99219 322.852 8.95312 322.852 10.6406ZM338.414 18.2109C335.508 18.2109 333.234 15.8906 333.234 11.6484C333.234 7.28906 335.602 5.10938 338.414 5.10938C340.547 5.10938 341.555 6.375 342.023 7.40625H342.141V1.03125H345.609V18H342.188V15.9609H342.023C341.531 17.0156 340.477 18.2109 338.414 18.2109ZM339.492 15.4453C341.227 15.4453 342.211 13.9219 342.211 11.625C342.211 9.32812 341.227 7.875 339.492 7.875C337.734 7.875 336.797 9.39844 336.797 11.625C336.797 13.875 337.734 15.4453 339.492 15.4453ZM348.398 18V5.27344H351.867V18H348.398ZM350.133 3.60938C349.078 3.60938 348.234 2.8125 348.234 1.85156C348.234 0.867188 349.078 0.0703125 350.133 0.0703125C351.164 0.0703125 352.008 0.867188 352.008 1.85156C352.008 2.8125 351.164 3.60938 350.133 3.60938ZM366.375 5.27344L361.898 18H358.008L353.555 5.27344H357.211L359.883 14.4141H360.023L362.695 5.27344H366.375ZM368.062 18V5.27344H371.531V18H368.062ZM369.797 3.60938C368.742 3.60938 367.898 2.8125 367.898 1.85156C367.898 0.867188 368.742 0.0703125 369.797 0.0703125C370.828 0.0703125 371.672 0.867188 371.672 1.85156C371.672 2.8125 370.828 3.60938 369.797 3.60938ZM378.914 18.2109C376.008 18.2109 373.734 15.8906 373.734 11.6484C373.734 7.28906 376.102 5.10938 378.914 5.10938C381.047 5.10938 382.055 6.375 382.523 7.40625H382.641V1.03125H386.109V18H382.688V15.9609H382.523C382.031 17.0156 380.977 18.2109 378.914 18.2109ZM379.992 15.4453C381.727 15.4453 382.711 13.9219 382.711 11.625C382.711 9.32812 381.727 7.875 379.992 7.875C378.234 7.875 377.297 9.39844 377.297 11.625C377.297 13.875 378.234 15.4453 379.992 15.4453ZM397.055 12.5859V5.27344H400.523V18H397.195V15.7031H397.055C396.469 17.1797 395.109 18.1641 393.188 18.1641C390.633 18.1641 388.898 16.3594 388.898 13.3828V5.27344H392.367V12.7734C392.367 14.2734 393.234 15.2344 394.594 15.2344C395.859 15.2344 397.055 14.3203 397.055 12.5859ZM402.609 14.4375C402.609 11.6016 404.906 10.6641 407.344 10.5234C408.258 10.4648 409.969 10.3828 410.508 10.3594V9.32812C410.484 8.27344 409.758 7.64062 408.469 7.64062C407.297 7.64062 406.547 8.17969 406.359 9.04688H403.055C403.266 6.84375 405.188 5.10938 408.562 5.10938C411.328 5.10938 413.953 6.35156 413.953 9.42188V18H410.672V16.2422H410.578C409.945 17.4141 408.75 18.2344 406.852 18.2344C404.414 18.2344 402.609 16.9688 402.609 14.4375ZM405.938 14.3438C405.938 15.3281 406.734 15.8438 407.836 15.8438C409.406 15.8438 410.531 14.7891 410.508 13.4531V12.5156C409.98 12.5391 408.504 12.6211 407.906 12.6797C406.711 12.7969 405.938 13.3594 405.938 14.3438ZM420.07 1.03125V18H416.602V1.03125H420.07Z" fill="#DADADA"/>
</svg>
