<svg width="310" height="45" viewBox="0 0 310 45" fill="none" xmlns="http://www.w3.org/2000/svg">
<path d="M39.176 1.496L43.208 43.592H34.424L32.216 16.52L26.792 41H17.096L11.72 16.808L9.464 43.592H0.68L4.712 1.496H15.752L21.944 29.624L28.136 1.496H39.176ZM60.7306 44.36C54.3466 44.36 46.8106 41.384 46.8106 31.064V24.584C46.8106 14.264 54.2026 11.288 60.7306 11.288C67.1146 11.288 74.6506 14.264 74.6506 24.584V31.064C74.6506 41.384 67.1146 44.36 60.7306 44.36ZM60.7306 36.488C62.7946 36.488 65.4826 35.384 65.4826 31.976V23.672C65.4826 20.264 62.7946 19.16 60.7306 19.16C58.6666 19.16 55.9786 20.264 55.9786 23.672V31.976C55.9786 35.384 58.6666 36.488 60.7306 36.488ZM90.2874 33.848L95.6634 12.056H104.447L95.1354 43.592H85.1514L75.5994 12.056H84.7674L90.2874 33.848ZM116.799 9.32H107.583V1.208H116.799V9.32ZM116.799 43.592H107.583V12.056H116.799V43.592ZM148.264 30.296H130.6V31.88C130.6 35.144 133.288 37.064 137.272 37.064C140.824 37.064 143.512 36.2 145.528 34.904L146.488 41.72C144.376 43.304 140.44 44.36 135.4 44.36C129.4 44.36 121.576 41.096 121.576 30.584V24.584C121.576 14.36 129.112 11.288 135.256 11.288C141.928 11.288 148.504 13.88 148.504 26.6C148.504 28.376 148.408 29.48 148.264 30.296ZM135.304 18.584C132.952 18.584 130.6 20.12 130.6 23.528V24.488H139.672V23.528C139.672 20.12 137.656 18.584 135.304 18.584ZM178.931 44.36C173.603 44.36 168.803 42.68 164.915 40.136L166.355 31.928C169.187 33.944 174.035 36.056 178.451 36.056C181.475 36.056 183.875 34.76 183.923 31.928C183.971 29.288 181.859 27.8 177.491 26.168L175.331 25.352C168.419 22.76 165.059 18.92 165.059 12.584C165.059 5.24 170.579 0.727998 179.075 0.727998C183.347 0.727998 187.571 1.928 190.883 3.848L189.683 11.624C186.179 9.752 182.819 9.032 179.747 9.032C176.915 9.032 174.563 10.136 174.515 12.824C174.467 15.608 176.867 16.616 180.755 18.104L182.915 18.92C189.299 21.32 193.427 24.824 193.427 31.928C193.427 39.704 187.283 44.36 178.931 44.36ZM210.449 44.408C204.593 44.408 200.801 41.816 200.801 34.568V20.648H195.569V13.016H200.801V2.936H209.921V13.016H217.217V20.648H209.921V34.136C209.921 35.768 210.881 36.632 212.417 36.68C213.857 36.728 215.729 36.536 216.737 36.152L217.217 43.112C215.537 43.88 213.185 44.408 210.449 44.408ZM234.028 44.36C227.644 44.36 220.108 41.384 220.108 31.064V24.584C220.108 14.264 227.5 11.288 234.028 11.288C240.412 11.288 247.948 14.264 247.948 24.584V31.064C247.948 41.384 240.412 44.36 234.028 44.36ZM234.028 36.488C236.092 36.488 238.78 35.384 238.78 31.976V23.672C238.78 20.264 236.092 19.16 234.028 19.16C231.964 19.16 229.276 20.264 229.276 23.672V31.976C229.276 35.384 231.964 36.488 234.028 36.488ZM265.619 44.36C259.715 44.36 251.795 41.336 251.795 30.344V25.304C251.795 14.312 259.715 11.288 265.619 11.288C270.035 11.288 273.059 12.2 275.171 13.496L274.211 20.504C272.675 19.592 270.323 19.064 267.011 19.064C263.507 19.064 260.963 20.984 260.963 25.208V30.44C260.963 34.664 263.507 36.584 267.011 36.584C270.083 36.584 273.011 35.864 274.787 34.76L275.747 42.008C273.395 43.448 270.035 44.36 265.619 44.36ZM298.659 12.056H309.651L298.275 25.112L309.651 43.592H299.763L292.611 31.64L289.299 35.432V43.592H280.083V1.496H289.299V23.528L298.659 12.056Z" fill="#FF0558"/>
</svg>
