<svg width="24" height="25" viewBox="0 0 24 25" fill="none" xmlns="http://www.w3.org/2000/svg">
<path fill-rule="evenodd" clip-rule="evenodd" d="M20.16 12.6927C20.16 12.09 20.1059 11.5105 20.0055 10.9541H12V14.2421H16.5746C16.3775 15.3046 15.7786 16.2048 14.8784 16.8075V18.9403H17.6255C19.2327 17.4605 20.16 15.2814 20.16 12.6927Z" fill="#4285F4"/>
<path fill-rule="evenodd" clip-rule="evenodd" d="M12 21.0002C14.295 21.0002 16.2191 20.2391 17.6254 18.9409L14.8784 16.8082C14.1173 17.3182 13.1436 17.6196 12 17.6196C9.78611 17.6196 7.91224 16.1243 7.24383 14.1152H4.40405V16.3175C5.80269 19.0955 8.67724 21.0002 12 21.0002Z" fill="#34A853"/>
<path fill-rule="evenodd" clip-rule="evenodd" d="M7.24387 14.1149C7.07387 13.6049 6.97728 13.0601 6.97728 12.4999C6.97728 11.9397 7.07387 11.3949 7.24387 10.8849V8.68262H4.40409C3.82841 9.83012 3.5 11.1283 3.5 12.4999C3.5 13.8715 3.82841 15.1697 4.40409 16.3172L7.24387 14.1149Z" fill="#FBBC05"/>
<path fill-rule="evenodd" clip-rule="evenodd" d="M12 7.38069C13.2479 7.38069 14.3684 7.80955 15.2493 8.65183L17.6873 6.21387C16.2152 4.84227 14.2911 4 12 4C8.67724 4 5.80269 5.90478 4.40405 8.68273L7.24383 10.885C7.91224 8.87592 9.78611 7.38069 12 7.38069Z" fill="#EA4335"/>
</svg>
